<svg height="512" viewBox="0 0 512 512" width="512" xmlns="http://www.w3.org/2000/svg"><g><g fill="#57a4ff"><path d="m128 368h-32v-17.33l32-3.74z"/><path d="m200 368h-32v-25.73l32-3.74z"/><path d="m240 336h32v32h-32z"/><path d="m496 328v120a40 40 0 0 1 -40 40h-400a40 40 0 0 1 -40-40v-56a40 40 0 0 0 40 40h336v-104z"/><path d="m240 240h-24v-32h24v-24h32v24h24v32h-24v24h-32z"/><path d="m96 336v32h32v-32zm72 0v32h32v-32zm72 0v32h32v-32zm152-8v104l104-103v-1zm-8-56v32h32v-32zm0-64v32h32v-32zm0-64v32h32v-32zm-63.99 128-7.99 9.11-.02.02v22.87h32v-32zm-8.01-128v22.87l.02.02 7.99 9.11h23.99v-32zm-112.02 137.11-7.99-9.11h-23.99v32h32v-22.87zm-31.98-137.11v32h23.99l7.99-9.11.02-.02v-22.87zm-72 128v32h32v-32zm0-64v32h32v-32zm0-64v32h32v-32z"/><path d="m191.99 272 7.99 9.11a81.406 81.406 0 0 1 -7.99-9.11z"/><path d="m191.99 176a81.406 81.406 0 0 1 7.99-9.11z"/><path d="m272 208h24v32h-24v24h-32v-24h-24v-32h24v-24h32z"/><path d="m312.02 281.11 7.99-9.11a81.406 81.406 0 0 1 -7.99 9.11z"/><path d="m320.01 176-7.99-9.11a81.406 81.406 0 0 1 7.99 9.11z"/><path d="m496 88v16h-480v-16a40 40 0 0 1 40-40h40v24h32v-24h40v24h32v-24h40v24h32v-24h40v24h32v-24h40v24h32v-24h40a40 40 0 0 1 40 40z"/><path d="m496 328-104 104v-104z"/><path d="m200 144v22.87l-.02.02-7.99 9.11h-23.99v-32z"/><path d="m96 144h32v32h-32z"/><path d="m344 144v32h-23.99l-7.99-9.11-.02-.02v-22.87z"/><path d="m384 144h32v32h-32z"/><path d="m96 208h32v32h-32z"/><path d="m384 208h32v32h-32z"/><path d="m200 281.13v22.87h-32v-32h23.99l7.99 9.11z"/><path d="m96 272h32v32h-32z"/><path d="m240 336h32v32h-32z"/><path d="m168 336h32v32h-32z"/><path d="m96 336h32v32h-32z"/><path d="m344 272v32h-32v-22.87l.02-.02 7.99-9.11z"/><path d="m384 272h32v32h-32z"/><path d="m296 208v32h-24v24h-32v-24h-24v-32h24v-24h32v24z"/></g><g fill="#004fac"><path d="m456 40h-32v-16a8 8 0 0 0 -8-8h-32a8 8 0 0 0 -8 8v16h-24v-16a8 8 0 0 0 -8-8h-32a8 8 0 0 0 -8 8v16h-24v-16a8 8 0 0 0 -8-8h-32a8 8 0 0 0 -8 8v16h-24v-16a8 8 0 0 0 -8-8h-32a8 8 0 0 0 -8 8v16h-24v-16a8 8 0 0 0 -8-8h-32a8 8 0 0 0 -8 8v16h-32a48.051 48.051 0 0 0 -48 48v360a48.051 48.051 0 0 0 48 48h400a48.051 48.051 0 0 0 48-48v-360a48.051 48.051 0 0 0 -48-48zm-64-8h16v32h-16zm-72 0h16v32h-16zm-72 0h16v32h-16zm-72 0h16v32h-16zm-72 0h16v32h-16zm384 416a32.036 32.036 0 0 1 -32 32h-400a32.03 32.03 0 0 1 -32-32v-20.26a47.8 47.8 0 0 0 32 12.26h336a7.979 7.979 0 0 0 5.63-2.32l90.37-89.5zm-88-35.18v-76.82h77.56zm88-92.82h-96a8 8 0 0 0 -8 8v96h-328a32.03 32.03 0 0 1 -32-32v-280h464zm0-224h-464v-8a32.03 32.03 0 0 1 32-32h32v16a8 8 0 0 0 8 8h32a8 8 0 0 0 8-8v-16h24v16a8 8 0 0 0 8 8h32a8 8 0 0 0 8-8v-16h24v16a8 8 0 0 0 8 8h32a8 8 0 0 0 8-8v-16h24v16a8 8 0 0 0 8 8h32a8 8 0 0 0 8-8v-16h24v16a8 8 0 0 0 8 8h32a8 8 0 0 0 8-8v-16h32a32.036 32.036 0 0 1 32 32z"/><path d="m96 184h32a8 8 0 0 0 8-8v-32a8 8 0 0 0 -8-8h-32a8 8 0 0 0 -8 8v32a8 8 0 0 0 8 8zm8-32h16v16h-16z"/><path d="m384 184h32a8 8 0 0 0 8-8v-32a8 8 0 0 0 -8-8h-32a8 8 0 0 0 -8 8v32a8 8 0 0 0 8 8zm8-32h16v16h-16z"/><path d="m96 248h32a8 8 0 0 0 8-8v-32a8 8 0 0 0 -8-8h-32a8 8 0 0 0 -8 8v32a8 8 0 0 0 8 8zm8-32h16v16h-16z"/><path d="m384 248h32a8 8 0 0 0 8-8v-32a8 8 0 0 0 -8-8h-32a8 8 0 0 0 -8 8v32a8 8 0 0 0 8 8zm8-32h16v16h-16z"/><path d="m168 312h32a8 8 0 0 0 8-8v-6.28a87.812 87.812 0 0 0 96 0v6.28a8 8 0 0 0 8 8h32a8 8 0 0 0 8-8v-32a8 8 0 0 0 -8-8h-9.628a87.9 87.9 0 0 0 0-80h9.628a8 8 0 0 0 8-8v-32a8 8 0 0 0 -8-8h-32a8 8 0 0 0 -8 8v6.28a87.812 87.812 0 0 0 -96 0v-6.28a8 8 0 0 0 -8-8h-32a8 8 0 0 0 -8 8v32a8 8 0 0 0 8 8h9.628a87.9 87.9 0 0 0 0 80h-9.628a8 8 0 0 0 -8 8v32a8 8 0 0 0 8 8zm168-32v16h-16v-11.667q1.984-2.1 3.833-4.333zm0-128v16h-12.167q-1.845-2.231-3.833-4.333v-11.667zm-8 72a72 72 0 1 1 -72-72 72.081 72.081 0 0 1 72 72zm-152-56v-16h16v11.667q-1.985 2.1-3.833 4.333zm0 112h12.167q1.845 2.231 3.833 4.333v11.667h-16z"/><path d="m96 312h32a8 8 0 0 0 8-8v-32a8 8 0 0 0 -8-8h-32a8 8 0 0 0 -8 8v32a8 8 0 0 0 8 8zm8-32h16v16h-16z"/><path d="m272 328h-32a8 8 0 0 0 -8 8v32a8 8 0 0 0 8 8h32a8 8 0 0 0 8-8v-32a8 8 0 0 0 -8-8zm-8 32h-16v-16h16z"/><path d="m168 376h32a8 8 0 0 0 8-8v-32a8 8 0 0 0 -8-8h-32a8 8 0 0 0 -8 8v32a8 8 0 0 0 8 8zm8-32h16v16h-16z"/><path d="m96 376h32a8 8 0 0 0 8-8v-32a8 8 0 0 0 -8-8h-32a8 8 0 0 0 -8 8v32a8 8 0 0 0 8 8zm8-32h16v16h-16z"/><path d="m384 312h32a8 8 0 0 0 8-8v-32a8 8 0 0 0 -8-8h-32a8 8 0 0 0 -8 8v32a8 8 0 0 0 8 8zm8-32h16v16h-16z"/><path d="m216 248h16v16a8 8 0 0 0 8 8h32a8 8 0 0 0 8-8v-16h16a8 8 0 0 0 8-8v-32a8 8 0 0 0 -8-8h-16v-16a8 8 0 0 0 -8-8h-32a8 8 0 0 0 -8 8v16h-16a8 8 0 0 0 -8 8v32a8 8 0 0 0 8 8zm8-32h16a8 8 0 0 0 8-8v-16h16v16a8 8 0 0 0 8 8h16v16h-16a8 8 0 0 0 -8 8v16h-16v-16a8 8 0 0 0 -8-8h-16z"/></g></g></svg>