<?xml version="1.0" encoding="iso-8859-1"?>
<!-- Generator: Adobe Illustrator 16.0.0, SVG Export Plug-In . SVG Version: 6.00 Build 0)  -->
<!DOCTYPE svg PUBLIC "-//W3C//DTD SVG 1.1//EN" "http://www.w3.org/Graphics/SVG/1.1/DTD/svg11.dtd">
<svg version="1.1" id="Capa_1" xmlns="http://www.w3.org/2000/svg" xmlns:xlink="http://www.w3.org/1999/xlink" x="0px" y="0px"
	 width="503.579px" height="503.58px" viewBox="0 0 503.579 503.58" style="enable-background:new 0 0 503.579 503.58;"
	 xml:space="preserve">
<g>
	<g>
		<path d="M318.747,242.069c0-2.639-2.143-4.781-4.781-4.781h-66.938V112.975h39.024L143.036,14.959L0,112.976h36.653v133.875h9.562
			h124.312v-95.625h47.812v95.625h19.312v47.812c0,2.64,2.143,4.781,4.781,4.781c2.64,0,4.781-2.142,4.781-4.781v-47.812h66.75
			C316.604,246.851,318.747,244.708,318.747,242.069z M141.841,199.038h-4.781H84.466v-43.031v-4.781h57.375V199.038z"/>
		<path d="M147.961,15.868l1.253,1.081c0.536,0.22,1.568,0.402,2.189,0.402h162.562c2.639,0,4.781-2.142,4.781-4.781
			c0-2.639-2.143-4.781-4.781-4.781H151.403c-2.639,0-4.78,2.142-4.78,4.781c0,0.105,0.048,0.191,0.057,0.296
			C146.756,14.022,147.206,15.075,147.961,15.868z"/>
		<polygon points="323.776,55.601 309.185,30.316 294.592,55.601 304.403,55.601 304.403,199.038 294.592,199.038 309.185,224.312 
			323.776,199.038 313.966,199.038 313.966,55.601 		"/>
		<polygon points="208.778,285.101 84.466,285.101 84.466,275.289 59.183,289.881 84.466,304.474 84.466,294.663 208.778,294.663 
			208.778,304.474 234.062,289.881 208.778,275.289 		"/>
		<polygon points="294.219,433.385 299.871,495.791 350.877,462.302 472.331,224.35 415.673,195.433 		"/>
		<path d="M486.722,145.832l-2.831-1.444c-13.301-6.789-32.731-9.323-39.397,3.729l-13.483,26.412l56.658,28.917l13.482-26.412
			C507.816,163.981,500.023,152.622,486.722,145.832z"/>
	</g>
</g>
<g>
</g>
<g>
</g>
<g>
</g>
<g>
</g>
<g>
</g>
<g>
</g>
<g>
</g>
<g>
</g>
<g>
</g>
<g>
</g>
<g>
</g>
<g>
</g>
<g>
</g>
<g>
</g>
<g>
</g>
</svg>
