<?xml version="1.0" encoding="iso-8859-1"?>
<!-- Generator: Adobe Illustrator 19.0.0, SVG Export Plug-In . SVG Version: 6.00 Build 0)  -->
<svg version="1.1" id="Capa_1" xmlns="http://www.w3.org/2000/svg" xmlns:xlink="http://www.w3.org/1999/xlink" x="0px" y="0px"
	 viewBox="0 0 512.001 512.001" style="enable-background:new 0 0 512.001 512.001;" xml:space="preserve">
<g>
	<g>
		<path d="M326.868,82.377c-4.2,0-7.604,3.405-7.604,7.604v10.542c0,4.199,3.404,7.604,7.604,7.604s7.604-3.405,7.604-7.604V89.981
			C334.472,85.782,331.069,82.377,326.868,82.377z"/>
	</g>
</g>
<g>
	<g>
		<path d="M354.276,82.377c-4.201,0-7.604,3.405-7.604,7.604v10.542c0,4.199,3.404,7.604,7.604,7.604c4.2,0,7.604-3.405,7.604-7.604
			V89.981C361.88,85.782,358.477,82.377,354.276,82.377z"/>
	</g>
</g>
<g>
	<g>
		<path d="M330.172,140.548c-9.449-0.505-15.957-4.099-19.893-10.986c-2.083-3.647-6.73-4.913-10.374-2.83
			c-3.647,2.083-4.914,6.728-2.83,10.375c6.518,11.406,17.682,17.847,32.288,18.627c0.138,0.007,0.275,0.011,0.412,0.011
			c4.013,0,7.37-3.144,7.586-7.198C337.584,144.353,334.366,140.772,330.172,140.548z"/>
	</g>
</g>
<g>
	<g>
		<path d="M388.87,61.58c-0.005-17.635-4.865-31.076-14.854-41.089C360.258,6.704,337.7,0,305.051,0
			c-14.865,0-27.965,1.763-38.937,5.24c-4.003,1.268-6.22,5.543-4.952,9.546c1.267,4.003,5.538,6.221,9.546,4.952
			c9.484-3.005,21.039-4.529,34.344-4.529c51.835,0,64.51,18.562,67.608,33.626c-22.94-10.305-51.573-16.711-75.793-2.345
			c-19.624,11.639-28.767,32.966-28.767,43.714c0,1.035,0.214,2.052,0.614,2.989c0.357,0.836,0.869,1.623,1.54,2.314
			c0.001,0,0.002,0.001,0.002,0.002c0.002,0.002,0.004,0.004,0.006,0.006c0.003,0.003,0.006,0.006,0.009,0.009
			c1.489,1.526,3.461,2.291,5.435,2.291c1.915,0,3.831-0.72,5.312-2.164c1.527-1.489,2.292-3.464,2.291-5.442
			c0-0.039,0-0.079-0.001-0.119c0.102-4.028,5.483-21.13,21.315-30.521c17.1-10.143,40.91-7.832,69.04,6.626v49.224
			c0,30.949-25.183,56.128-56.138,56.128c-4.525,0-8.995-0.533-13.304-1.591c-14.253-3.458-26.421-12.239-34.263-24.726
			c-2.234-3.557-6.928-4.627-10.484-2.395c-3.557,2.234-4.628,6.928-2.395,10.483c9.962,15.861,25.431,27.018,43.537,31.412
			c5.475,1.342,11.164,2.024,16.908,2.024c39.34,0,71.346-32.001,71.346-71.335V61.61C388.871,61.6,388.87,61.59,388.87,61.58z"/>
	</g>
</g>
<g>
	<g>
		<path d="M280.641,183.018c-3.656-2.071-8.295-0.791-10.367,2.863c-9.836,17.344-23.445,46.965-32.421,89.578
			c-0.866,4.109,1.764,8.142,5.873,9.008c0.528,0.112,1.055,0.165,1.576,0.165c3.519,0,6.678-2.458,7.433-6.039
			c8.573-40.702,21.465-68.804,30.77-85.21C285.576,189.73,284.293,185.09,280.641,183.018z"/>
	</g>
</g>
<g>
	<g>
		<path d="M388.283,369.377c-0.086-0.251-8.725-25.375-18.551-59.364c-1.166-4.034-5.386-6.359-9.417-5.193
			c-4.034,1.166-6.359,5.383-5.193,9.417c6.611,22.868,12.697,41.787,16.059,51.971c-40.548,8.144-74.843,6.676-97.011,3.853
			c-4.156-0.529-7.972,2.416-8.503,6.582c-0.53,4.166,2.416,7.973,6.582,8.504c2.176,0.277,4.467,0.54,6.859,0.786
			c4.481,29.081,3.967,70.987-19.851,114.835c-1.279,2.356-1.224,5.212,0.147,7.517c1.372,2.305,3.855,3.717,6.535,3.717h26.36
			c4.2,0,7.604-3.405,7.604-7.604s-3.404-7.604-7.604-7.604h-14.016c19.409-41.674,20.28-80.943,16.358-109.68
			c4.923,0.246,10.142,0.389,15.633,0.389c5.88,0,12.081-0.171,18.547-0.545c4.307,29.042,3.534,70.485-20.005,113.81
			c-1.281,2.356-1.225,5.212,0.146,7.517c1.372,2.305,3.855,3.717,6.535,3.717h26.35c4.2,0,7.604-3.405,7.604-7.604
			s-3.404-7.604-7.604-7.604h-14.005c19.72-42.336,20.306-82.212,16.17-111.07c12.203-1.284,25.191-3.347,38.778-6.456
			c2.103-0.482,3.903-1.834,4.951-3.721C388.789,373.659,388.987,371.417,388.283,369.377z"/>
	</g>
</g>
<g>
	<g>
		<path d="M261.155,369.375c-0.345-0.999-34.547-100.7-44.999-174.812c-0.587-4.159-4.429-7.055-8.592-6.467
			c-4.158,0.586-7.053,4.433-6.467,8.591c8.895,63.068,34.532,143.937,42.96,169.519c-38.632,7.756-71.466,6.732-92.749,4.363
			c-16.288-1.813-28.325-4.651-34.688-6.391c0.596-53.901,9.678-95.639,19.983-125.91c9.763-4.148,16.41-4.807,16.652-4.829
			c4.17-0.322,7.3-3.955,6.997-8.131c-0.303-4.188-3.943-7.337-8.133-7.034c-0.316,0.023-3.481,0.283-8.577,1.585
			c4.547-10.93,9.023-19.752,12.836-26.475c2.071-3.653,0.789-8.293-2.863-10.366c-3.654-2.071-8.295-0.791-10.367,2.863
			c-5.477,9.658-12.256,23.399-18.749,41.296c-4.65,2.358-9.662,5.328-14.867,9.085c-29.086,20.999-46.542,53.555-56.925,82.675
			c-7.636,0-14.814,2.973-20.211,8.37c-5.397,5.398-8.37,12.576-8.37,20.212v14.6h-11.29c-4.065,0-7.411,3.197-7.596,7.257
			l-4.539,99.46c-0.095,2.074,0.663,4.098,2.098,5.6c1.435,1.501,3.421,2.351,5.498,2.351h53.227c4.2,0,7.604-3.405,7.604-7.604
			c0-4.199-3.404-7.604-7.604-7.604H16.151l3.846-84.252h11.611c0.006,0,0.013,0.001,0.019,0.001c0.006,0,0.013-0.001,0.019-0.001
			h41.92c0.006,0,0.013,0.001,0.019,0.001c0.006,0,0.013-0.001,0.019-0.001h8.826l3.845,84.252H85.75
			c-4.2,0-7.604,3.405-7.604,7.604c0,4.199,3.404,7.604,7.604,7.604h8.482c2.077,0,4.064-0.85,5.498-2.351
			c1.435-1.502,2.193-3.525,2.098-5.6l-4.538-99.46c-0.186-4.06-3.531-7.257-7.596-7.257h-8.507v-14.6
			c0-10.396-5.581-19.511-13.902-24.513c11.765-32.609,28.783-57.76,49.889-73.486c-8.857,30.934-15.796,70.905-15.796,120.304
			c0,3.231,2.043,6.109,5.092,7.177c1.315,0.46,18.046,6.166,45.518,8.999c4.468,29.08,3.937,70.953-19.862,114.764
			c-1.279,2.356-1.224,5.212,0.147,7.517c1.372,2.305,3.855,3.717,6.535,3.717h26.36c4.2,0,7.604-3.405,7.604-7.604
			c0-4.199-3.404-7.604-7.604-7.604h-14.016c19.389-41.634,20.277-80.875,16.367-109.607c4.921,0.247,10.082,0.391,15.481,0.391
			c5.957,0,12.205-0.178,18.697-0.562c4.298,29.039,3.51,70.454-20.013,113.751c-1.281,2.356-1.225,5.212,0.146,7.517
			c1.372,2.305,3.855,3.717,6.535,3.717h26.35c4.2,0,7.604-3.405,7.604-7.604c0-4.199-3.404-7.604-7.604-7.604h-14.006
			c19.712-42.317,20.305-82.177,16.176-111.031c12.224-1.304,25.195-3.386,38.774-6.495c2.104-0.48,3.903-1.832,4.952-3.719
			C261.661,373.658,261.859,371.416,261.155,369.375z M65.981,362.121H39.23v-14.6c0-3.574,1.391-6.934,3.917-9.459
			c1.234-1.234,2.669-2.192,4.229-2.854c-0.592,2.058-1.151,4.083-1.674,6.063c-1.073,4.061,1.349,8.221,5.41,9.294
			c0.651,0.171,1.304,0.253,1.947,0.253c3.368,0,6.446-2.255,7.346-5.664c0.608-2.304,1.245-4.572,1.899-6.816
			c2.273,2.399,3.677,5.627,3.677,9.184V362.121z"/>
	</g>
</g>
<g>
	<g>
		<path d="M199.741,82.377c-4.2,0-7.604,3.405-7.604,7.604v10.542c0,4.199,3.404,7.604,7.604,7.604s7.604-3.405,7.604-7.604V89.981
			C207.345,85.782,203.942,82.377,199.741,82.377z"/>
	</g>
</g>
<g>
	<g>
		<path d="M227.149,82.377c-4.2,0-7.604,3.405-7.604,7.604v10.542c0,4.199,3.404,7.604,7.604,7.604s7.604-3.405,7.604-7.604V89.981
			C234.753,85.782,231.349,82.377,227.149,82.377z"/>
	</g>
</g>
<g>
	<g>
		<path d="M203.042,140.548c-9.449-0.505-15.956-4.099-19.892-10.986c-2.085-3.647-6.73-4.913-10.374-2.83
			c-3.647,2.083-4.914,6.728-2.83,10.375c6.518,11.406,17.682,17.847,32.286,18.627c0.138,0.007,0.275,0.011,0.412,0.011
			c4.013,0,7.37-3.143,7.586-7.198C210.455,144.353,207.237,140.772,203.042,140.548z"/>
	</g>
</g>
<g>
	<g>
		<path d="M254.138,77.042c-4.2,0-7.604,3.405-7.604,7.604v30.771c0,30.949-25.183,56.128-56.138,56.128
			c-27.914,0-51.815-20.817-55.599-48.42c-0.387-2.826-2.323-5.196-5.013-6.142c-1.852-0.651-3.501-1.69-4.904-3.093
			c-2.444-2.442-3.791-5.691-3.791-9.148s1.346-6.707,3.794-9.151c1.313-1.312,2.824-2.3,4.507-2.942
			c4.774-1.834,10.193-0.682,13.751,2.875c2.159,2.213,5.445,2.9,8.309,1.733c2.864-1.166,4.738-3.95,4.738-7.043V81.43
			c16.359,2.589,40.848,0.304,59.761-19.683c14.342,8.042,35.703,7.561,38.461,7.463c3.333-0.12,6.199-2.397,7.069-5.616
			c2.124-7.858,5.726-27.882-6.649-44.044C244.898,6.578,227.655,0,203.581,0c-26.931,0-55.156,0.996-78.254,12.893
			c-26.133,13.461-41.47,38.668-46.884,77.059c-7.865,55.772,14.574,109.076,28.65,135.885c1.361,2.589,4.003,4.071,6.738,4.071
			c1.192,0,2.401-0.281,3.528-0.873c3.718-1.952,5.149-6.549,3.198-10.267C107.332,193.578,86.232,143.624,93.5,92.075
			c10.043-71.207,53.852-76.867,110.08-76.867c19.091,0,32.271,4.572,39.175,13.588c6.191,8.086,6.138,18.424,5.191,25.146
			c-8.72-0.413-22.216-2.225-27.836-7.845c-1.547-1.547-3.686-2.355-5.868-2.211c-2.183,0.141-4.199,1.216-5.534,2.949
			c-22.723,29.51-56.173,18.242-57.558,17.758c-2.331-0.835-4.919-0.484-6.943,0.94c-2.023,1.424-3.227,3.744-3.227,6.218v5.701
			c-5.538-1.408-11.484-1.135-17.026,0.993c-3.682,1.404-6.988,3.555-9.821,6.388c-5.322,5.316-8.253,12.386-8.253,19.909
			c0,7.523,2.931,14.594,8.25,19.906c1.895,1.895,4.006,3.486,6.307,4.757c6.569,32.979,35.918,57.348,69.959,57.348
			c39.34,0,71.346-32.001,71.346-71.335V84.646C261.742,80.447,258.338,77.042,254.138,77.042z"/>
	</g>
</g>
<g>
	<g>
		<path d="M506.337,291.045c-0.161-4.08-3.516-7.304-7.598-7.304h-13.014v-14.6c0-15.76-12.822-28.583-28.583-28.583
			c-1.098,0-2.185,0.069-3.26,0.19c-6.873-4.579-20.776-10.807-38.217-2.551c-0.241,0.115-0.477,0.241-0.704,0.38
			c-7.467,4.551-14.915,8.493-22.136,11.716c-8.834,3.943-18.797,3.569-27.338-1.024c-6.81-3.663-12.518-9.56-15.389-16.638
			c-2.904-13.789-5.184-26.509-6.814-38.07c-0.586-4.158-4.432-7.053-8.593-6.467c-4.159,0.587-7.053,4.434-6.467,8.591
			c3.741,26.526,10.763,58.844,20.869,96.057c0.92,3.385,3.987,5.613,7.333,5.613c0.66,0,1.331-0.086,1.998-0.268
			c4.052-1.101,6.445-5.278,5.345-9.331c-2.529-9.31-4.857-18.298-6.989-26.959c0.498,0.291,0.991,0.589,1.502,0.864
			c6.879,3.7,14.38,5.561,21.9,5.561c6.388,0,12.792-1.343,18.84-4.043c7.692-3.433,15.592-7.603,23.488-12.395
			c5.172-2.368,9.806-2.667,13.656-2.056c-4.911,5.297-7.609,12.146-7.609,19.413v14.6h-15.8c-4.082,0-7.437,3.224-7.598,7.304
			l-5.069,128.159c-0.082,2.067,0.682,4.079,2.116,5.57c1.434,1.491,3.413,2.334,5.482,2.334h96.119
			c2.069,0,4.048-0.844,5.482-2.334c1.434-1.491,2.198-3.503,2.116-5.57L506.337,291.045z M443.766,269.141
			c0-3.574,1.391-6.934,3.917-9.459c1.047-1.047,2.245-1.888,3.535-2.527c2.251,0.598,4.72,0.148,6.638-1.354
			c7.042,0.375,12.661,6.205,12.661,13.339v14.6h-26.751V269.141z M415.6,411.901l4.467-112.951h16.08
			c0.005,0,0.01,0.001,0.015,0.001c0.005,0,0.01-0.001,0.015-0.001h41.929c0.005,0,0.01,0.001,0.015,0.001
			c0.005,0,0.01-0.001,0.015-0.001h13.294l4.467,112.951H415.6z"/>
	</g>
</g>
<g>
</g>
<g>
</g>
<g>
</g>
<g>
</g>
<g>
</g>
<g>
</g>
<g>
</g>
<g>
</g>
<g>
</g>
<g>
</g>
<g>
</g>
<g>
</g>
<g>
</g>
<g>
</g>
<g>
</g>
</svg>
